<svg width="129" height="56" viewBox="0 0 129 56" fill="none" xmlns="http://www.w3.org/2000/svg">
<path d="M45.65 24H41.1L35.5 15.9V24H31.5V6.5H35.5V14.1L40.85 6.5H45.4L39.5 15.025L45.65 24ZM47.0244 10V6.5H50.7744V10H47.0244ZM47.0244 24V11.5H50.7744V24H47.0244ZM60.5186 11.15C61.7019 11.15 62.6602 11.5917 63.3936 12.475C64.1436 13.3417 64.5186 14.5417 64.5186 16.075V24H60.7686V16.4C60.7686 15.8 60.6102 15.35 60.2936 15.05C59.9936 14.75 59.5936 14.6 59.0936 14.6C57.8769 14.6 57.2686 15.3 57.2686 16.7V24H53.5186V11.5H57.2686V12.65C57.9186 11.65 59.0019 11.15 60.5186 11.15ZM77.6463 22.45C76.363 23.7167 74.7963 24.35 72.9463 24.35C71.0963 24.35 69.5296 23.7167 68.2463 22.45C66.963 21.1667 66.3213 19.6 66.3213 17.75C66.3213 15.9 66.963 14.3417 68.2463 13.075C69.5296 11.7917 71.0963 11.15 72.9463 11.15C74.7963 11.15 76.363 11.7917 77.6463 13.075C78.9296 14.3417 79.5713 15.9 79.5713 17.75C79.5713 19.6 78.9296 21.1667 77.6463 22.45ZM70.8963 19.875C71.4463 20.425 72.1296 20.7 72.9463 20.7C73.763 20.7 74.4463 20.425 74.9963 19.875C75.5463 19.325 75.8213 18.6167 75.8213 17.75C75.8213 16.8833 75.5463 16.175 74.9963 15.625C74.4463 15.075 73.763 14.8 72.9463 14.8C72.1296 14.8 71.4463 15.075 70.8963 15.625C70.3463 16.175 70.0713 16.8833 70.0713 17.75C70.0713 18.6167 70.3463 19.325 70.8963 19.875Z" fill="#3657CB"/>
<path d="M83.1674 12.4C84.1674 11.5667 85.4007 11.15 86.8674 11.15C88.3341 11.15 89.5674 11.5833 90.5674 12.45C91.5674 13.3 92.0674 14.525 92.0674 16.125V24H88.4174V23.025C87.6507 23.9083 86.5757 24.35 85.1924 24.35C84.0257 24.35 83.0424 24.0083 82.2424 23.325C81.459 22.6417 81.0674 21.6833 81.0674 20.45C81.0674 19.2167 81.459 18.2583 82.2424 17.575C83.0424 16.8917 84.0257 16.55 85.1924 16.55C86.4924 16.55 87.5674 16.8667 88.4174 17.5V16.375C88.4174 15.1917 87.9007 14.6 86.8674 14.6C86.3674 14.6 85.984 14.7167 85.7174 14.95C85.4507 15.1833 85.3174 15.4917 85.3174 15.875H81.6674C81.6674 14.3917 82.1674 13.2333 83.1674 12.4ZM86.5174 21.7C87.1174 21.7 87.584 21.5833 87.9174 21.35C88.2507 21.1167 88.4174 20.8167 88.4174 20.45C88.4174 20.0667 88.2507 19.7667 87.9174 19.55C87.584 19.3167 87.1174 19.2 86.5174 19.2C85.9674 19.2 85.5424 19.3167 85.2424 19.55C84.959 19.7667 84.8174 20.0667 84.8174 20.45C84.8174 20.8333 84.959 21.1417 85.2424 21.375C85.5424 21.5917 85.9674 21.7 86.5174 21.7ZM98.2354 13.475C98.4354 12.7583 98.827 12.2083 99.4104 11.825C99.9937 11.4417 100.685 11.25 101.485 11.25V15.5C100.619 15.3667 99.8604 15.5083 99.2104 15.925C98.5604 16.3417 98.2354 17.0667 98.2354 18.1V24H94.4854V11.5H98.2354V13.475ZM106.159 19.25C106.576 20.6333 107.551 21.325 109.084 21.325C109.534 21.325 109.959 21.2417 110.359 21.075C110.759 20.8917 111.051 20.6583 111.234 20.375L114.884 20.35C114.484 21.65 113.768 22.6417 112.734 23.325C111.701 24.0083 110.468 24.35 109.034 24.35C107.001 24.35 105.359 23.725 104.109 22.475C102.859 21.225 102.234 19.65 102.234 17.75C102.234 15.8667 102.859 14.3 104.109 13.05C105.376 11.7833 106.984 11.15 108.934 11.15C110.751 11.15 112.251 11.775 113.434 13.025C114.634 14.275 115.234 15.85 115.234 17.75C115.234 18.2833 115.184 18.7833 115.084 19.25H106.159ZM106.134 16.4H111.509C111.143 15.1167 110.276 14.475 108.909 14.475C107.476 14.475 106.551 15.1167 106.134 16.4ZM118.788 12.4C119.788 11.5667 121.021 11.15 122.488 11.15C123.954 11.15 125.188 11.5833 126.188 12.45C127.188 13.3 127.688 14.525 127.688 16.125V24H124.038V23.025C123.271 23.9083 122.196 24.35 120.813 24.35C119.646 24.35 118.663 24.0083 117.863 23.325C117.079 22.6417 116.688 21.6833 116.688 20.45C116.688 19.2167 117.079 18.2583 117.863 17.575C118.663 16.8917 119.646 16.55 120.813 16.55C122.113 16.55 123.188 16.8667 124.038 17.5V16.375C124.038 15.1917 123.521 14.6 122.488 14.6C121.988 14.6 121.604 14.7167 121.338 14.95C121.071 15.1833 120.938 15.4917 120.938 15.875H117.288C117.288 14.3917 117.788 13.2333 118.788 12.4ZM122.138 21.7C122.738 21.7 123.204 21.5833 123.538 21.35C123.871 21.1167 124.038 20.8167 124.038 20.45C124.038 20.0667 123.871 19.7667 123.538 19.55C123.204 19.3167 122.738 19.2 122.138 19.2C121.588 19.2 121.163 19.3167 120.863 19.55C120.579 19.7667 120.438 20.0667 120.438 20.45C120.438 20.8333 120.579 21.1417 120.863 21.375C121.163 21.5917 121.588 21.7 122.138 21.7Z" fill="white"/>
<path d="M13.2656 9.49218C13.2656 8.09644 12.1301 6.96094 10.7344 6.96094C9.33863 6.96094 8.20312 8.09644 8.20312 9.49218C8.20312 10.8879 9.33863 12.0234 10.7344 12.0234C12.1301 12.0234 13.2656 10.8879 13.2656 9.49218ZM9.14062 9.49218C9.14062 8.61337 9.85556 7.89844 10.7344 7.89844C11.6132 7.89844 12.3281 8.61337 12.3281 9.49218C12.3281 10.371 11.6132 11.0859 10.7344 11.0859C9.85556 11.0859 9.14062 10.371 9.14062 9.49218Z" fill="white"/>
<path d="M6.6447 15.5524C7.24699 15.2455 7.69371 14.7225 7.90263 14.0796C8.11151 13.4367 8.05755 12.751 7.75066 12.1487C7.44377 11.5464 6.9207 11.0997 6.27785 10.8908C5.63491 10.6818 4.94918 10.7358 4.34693 11.0427C3.74463 11.3496 3.29791 11.8727 3.08899 12.5155C2.88012 13.1584 2.93407 13.8442 3.24096 14.4465C3.54785 15.0488 4.07093 15.4955 4.71377 15.7044C4.97121 15.788 5.23545 15.8295 5.49846 15.8295C5.89235 15.8296 6.28352 15.7365 6.6447 15.5524ZM5.00346 14.8128C4.59874 14.6813 4.26945 14.4001 4.07623 14.0209C3.88301 13.6417 3.84902 13.21 3.98056 12.8053C4.11204 12.4006 4.39329 12.0713 4.77246 11.878C4.99985 11.7622 5.24609 11.7036 5.4941 11.7036C5.65966 11.7036 5.82607 11.7297 5.98812 11.7824C6.39284 11.9139 6.72213 12.1951 6.91535 12.5743C7.10857 12.9535 7.14256 13.3852 7.01102 13.7899C6.87954 14.1946 6.59829 14.5239 6.21912 14.7171C5.8399 14.9103 5.40818 14.9443 5.00346 14.8128Z" fill="white"/>
<path d="M6.00924 21.5032C6.45756 21.8289 6.97787 21.9857 7.49363 21.9857C8.27701 21.9857 9.05007 21.6241 9.5447 20.9432C9.9421 20.3963 10.1027 19.7273 9.9969 19.0595C9.8911 18.3917 9.53166 17.8052 8.98468 17.4078C8.4377 17.0104 7.76884 16.8497 7.10096 16.9556C6.43318 17.0613 5.84659 17.4208 5.44923 17.9678C4.62896 19.0968 4.88016 20.6829 6.00924 21.5032ZM6.20776 18.5188C6.45793 18.1744 6.82726 17.9481 7.24768 17.8815C7.3321 17.8682 7.41652 17.8615 7.50038 17.8615C7.83413 17.8615 8.15851 17.9663 8.43371 18.1663C9.14462 18.6828 9.30277 19.6813 8.78626 20.3922C8.26974 21.1031 7.27121 21.2613 6.56031 20.7448C5.8494 20.2283 5.69124 19.2297 6.20776 18.5188Z" fill="white"/>
<path d="M13.9754 21.9857C14.4912 21.9857 15.0117 21.8288 15.4599 21.5032C16.589 20.6828 16.8402 19.0968 16.0198 17.9677C15.6224 17.4208 15.0358 17.0613 14.3681 16.9556C13.7003 16.8498 13.0314 17.0104 12.4844 17.4078C11.9374 17.8051 11.578 18.3918 11.4722 19.0595C11.3664 19.7272 11.527 20.3962 11.9244 20.9432C12.4191 21.6241 13.192 21.9857 13.9754 21.9857ZM13.0354 18.1662C13.3798 17.916 13.8008 17.8148 14.2214 17.8815C14.6418 17.9481 15.0111 18.1744 15.2613 18.5188C15.7778 19.2297 15.6197 20.2282 14.9088 20.7447C14.1979 21.2613 13.1993 21.1031 12.6828 20.3922C12.1663 19.6813 12.3245 18.6827 13.0354 18.1662Z" fill="white"/>
<path d="M15.1913 10.8907C14.5484 11.0996 14.0253 11.5463 13.7185 12.1486C13.4116 12.7509 13.3577 13.4367 13.5665 14.0796C13.7755 14.7224 14.2222 15.2455 14.8245 15.5524C15.1856 15.7364 15.5768 15.8295 15.9707 15.8295C16.2337 15.8295 16.4981 15.788 16.7554 15.7044C17.3983 15.4955 17.9214 15.0487 18.2282 14.4464C18.5351 13.8442 18.5891 13.1584 18.3802 12.5155C18.1713 11.8726 17.7245 11.3496 17.1222 11.0427C16.52 10.7358 15.8342 10.6819 15.1913 10.8907ZM16.6967 11.878C17.0758 12.0712 17.3571 12.4005 17.4886 12.8053C17.6201 13.21 17.5861 13.6417 17.3929 14.0209C17.1997 14.4 16.8704 14.6813 16.4657 14.8128C16.0609 14.9443 15.6292 14.9103 15.2501 14.7171C14.8709 14.5239 14.5896 14.1946 14.4581 13.7899C14.3266 13.3851 14.3606 12.9534 14.5538 12.5743C14.747 12.1951 15.0763 11.9138 15.4811 11.7824C15.6431 11.7297 15.8095 11.7036 15.9751 11.7036C16.223 11.7036 16.4693 11.7621 16.6967 11.878Z" fill="white"/>
<path d="M12.3418 15C12.3418 14.1137 11.6208 13.3926 10.7344 13.3926C9.84803 13.3926 9.12695 14.1137 9.12695 15C9.12695 15.8864 9.84803 16.6075 10.7344 16.6075C11.6208 16.6075 12.3418 15.8864 12.3418 15ZM10.0645 15C10.0645 14.6306 10.365 14.3301 10.7344 14.3301C11.1038 14.3301 11.4043 14.6306 11.4043 15C11.4043 15.3694 11.1038 15.67 10.7344 15.67C10.365 15.67 10.0645 15.3694 10.0645 15Z" fill="white"/>
<path d="M23.8627 23.7073C23.3326 23.1772 22.6279 22.8853 21.8783 22.8853C21.1287 22.8853 20.424 23.1772 19.8939 23.7073C19.1913 24.4099 18.2571 24.7969 17.2634 24.7969H15.1344C16.3078 24.2693 17.3877 23.5273 18.3247 22.5903C20.3522 20.5629 21.4688 17.8673 21.4688 15C21.4688 12.9028 20.8638 10.871 19.7192 9.12427C19.5774 8.9077 19.2868 8.84719 19.0702 8.98908C18.8537 9.13097 18.7932 9.42155 18.9351 9.63806C19.9793 11.2317 20.5312 13.0859 20.5312 15C20.5312 20.402 16.1364 24.7969 10.7344 24.7969C5.33236 24.7969 0.9375 20.402 0.9375 15C0.9375 9.59798 5.33236 5.20312 10.7344 5.20312C12.6517 5.20312 14.5086 5.75681 16.104 6.80438C16.3204 6.9465 16.611 6.88627 16.7531 6.6698C16.8952 6.45338 16.835 6.1628 16.6185 6.02067C14.8698 4.87252 12.8351 4.26562 10.7344 4.26562C7.86713 4.26562 5.17148 5.38219 3.14405 7.40967C1.11661 9.43716 0 12.1328 0 15C0 17.8673 1.11656 20.5629 3.14405 22.5904C5.17148 24.6178 7.86713 25.7344 10.7344 25.7344H17.2634C18.5075 25.7344 19.6771 25.2499 20.5568 24.3702C20.9098 24.0172 21.3791 23.8228 21.8783 23.8228C22.3775 23.8228 22.8468 24.0172 23.1998 24.3702C23.3828 24.5532 23.6796 24.5532 23.8627 24.3702C24.0458 24.1871 24.0458 23.8903 23.8627 23.7073Z" fill="white"/>
<path d="M17.9971 8.21242C18.1204 8.21242 18.2413 8.16273 18.3285 8.07555C18.4157 7.98789 18.4658 7.86742 18.4658 7.74414C18.4658 7.62039 18.4157 7.49992 18.3285 7.41227C18.2413 7.32508 18.1204 7.27539 17.9971 7.27539C17.8738 7.27539 17.7529 7.32508 17.6657 7.41227C17.5785 7.49992 17.5283 7.62039 17.5283 7.74414C17.5283 7.86742 17.5785 7.98836 17.6657 8.07555C17.7529 8.16273 17.8738 8.21242 17.9971 8.21242Z" fill="white"/>
<path d="M13.8379 44.6211C13.7871 44.875 13.584 45.2897 13.2285 45.8652C12.89 46.4408 12.5768 46.9486 12.2891 47.3887C12.0013 47.8118 11.849 48.0319 11.832 48.0488C11.7305 48.2012 11.6797 48.3112 11.6797 48.3789C11.6797 48.4466 11.7305 48.5651 11.832 48.7344C11.832 48.7344 11.8828 48.7936 11.9844 48.9121C12.1029 49.0306 12.2383 49.166 12.3906 49.3184C12.543 49.4707 12.7122 49.6484 12.8984 49.8516C13.0846 50.0547 13.2539 50.2578 13.4062 50.4609C13.5755 50.6471 13.7194 50.8418 13.8379 51.0449C13.9733 51.248 14.0664 51.4173 14.1172 51.5527C14.2357 51.9759 14.0664 52.1875 13.6094 52.1875H12.1113C11.9928 52.1875 11.8913 52.1706 11.8066 52.1367C11.722 52.1029 11.6289 52.0436 11.5273 51.959C11.4258 51.8743 11.3327 51.7812 11.248 51.6797C11.1634 51.5781 11.0365 51.4342 10.8672 51.248C10.6979 51.0618 10.5286 50.8841 10.3594 50.7148C9.68229 50.0716 9.18294 49.75 8.86133 49.75C8.6582 49.75 8.53971 49.8092 8.50586 49.9277C8.47201 50.0462 8.45508 50.3848 8.45508 50.9434C8.47201 51.2142 8.48047 51.4342 8.48047 51.6035C8.48047 51.8066 8.41276 51.959 8.27734 52.0605C8.14193 52.1452 7.8457 52.1875 7.38867 52.1875C6.5931 52.1875 5.78906 51.9505 4.97656 51.4766C4.16406 51.0026 3.45312 50.3255 2.84375 49.4453C2.26823 48.6667 1.78581 47.8965 1.39648 47.1348C1.02409 46.3561 0.778646 45.7637 0.660156 45.3574C0.541667 44.9512 0.482422 44.6634 0.482422 44.4941C0.482422 44.2064 0.651693 44.0625 0.990234 44.0625H2.48828C2.67448 44.0625 2.8099 44.1048 2.89453 44.1895C2.99609 44.2741 3.08073 44.4264 3.14844 44.6465C3.50391 45.679 3.93555 46.6016 4.44336 47.4141C4.9681 48.2266 5.36589 48.6328 5.63672 48.6328C5.73828 48.6328 5.80599 48.599 5.83984 48.5312C5.89062 48.4466 5.91602 48.2943 5.91602 48.0742V45.8652C5.89909 45.6283 5.85677 45.4251 5.78906 45.2559C5.72135 45.0866 5.65365 44.9681 5.58594 44.9004C5.51823 44.8158 5.45052 44.7311 5.38281 44.6465C5.33203 44.5618 5.30664 44.4857 5.30664 44.418C5.30664 44.3503 5.32357 44.291 5.35742 44.2402C5.39128 44.1895 5.43359 44.1471 5.48438 44.1133C5.55208 44.0794 5.61979 44.0625 5.6875 44.0625H8.04883C8.31966 44.0625 8.45508 44.2487 8.45508 44.6211V47.5664C8.45508 47.8542 8.53125 47.998 8.68359 47.998C8.85286 47.998 9.08984 47.8457 9.39453 47.541C9.71615 47.1855 10.0293 46.7539 10.334 46.2461C10.6387 45.7383 10.8672 45.3151 11.0195 44.9766L11.248 44.4941C11.3665 44.2064 11.5781 44.0625 11.8828 44.0625H13.3809C13.7871 44.0625 13.9395 44.2487 13.8379 44.6211ZM85.084 48.9375H83.1797V54.625H80.6406V48.9375H78.584V46.5762H80.6406V44.7988C80.6406 44.1217 80.7676 43.5462 81.0215 43.0723C81.2754 42.5983 81.6309 42.2428 82.0879 42.0059C82.5618 41.752 83.1035 41.625 83.7129 41.625C83.9837 41.625 84.2715 41.6419 84.5762 41.6758C84.8809 41.6927 85.1178 41.7181 85.2871 41.752L85.541 41.7773V43.7832H84.5254C84.0514 43.7832 83.7044 43.9102 83.4844 44.1641C83.2812 44.401 83.1797 44.6973 83.1797 45.0527V46.5762H85.4395L85.084 48.9375ZM123.779 45.4844C123.796 45.5521 123.805 45.6621 123.805 45.8145C123.805 46.7116 123.635 47.6087 123.297 48.5059C122.958 49.3861 122.476 50.1986 121.85 50.9434C121.24 51.6712 120.445 52.2637 119.463 52.7207C118.481 53.1777 117.398 53.4062 116.213 53.4062C114.723 53.4062 113.361 53.0085 112.125 52.2129C112.311 52.2298 112.523 52.2383 112.76 52.2383C113.995 52.2383 115.104 51.8574 116.086 51.0957C115.493 51.0957 114.969 50.9264 114.512 50.5879C114.072 50.2324 113.767 49.7923 113.598 49.2676C113.767 49.2845 113.928 49.293 114.08 49.293C114.317 49.293 114.554 49.2676 114.791 49.2168C114.385 49.1322 114.021 48.9629 113.699 48.709C113.378 48.4551 113.124 48.1504 112.938 47.7949C112.751 47.4225 112.658 47.0247 112.658 46.6016V46.5508C113.031 46.7708 113.428 46.8893 113.852 46.9062C113.056 46.3646 112.658 45.6198 112.658 44.6719C112.658 44.1979 112.785 43.7493 113.039 43.3262C113.699 44.1556 114.503 44.8158 115.451 45.3066C116.416 45.7975 117.44 46.0684 118.523 46.1191C118.49 45.916 118.473 45.7129 118.473 45.5098C118.473 44.7819 118.727 44.1556 119.234 43.6309C119.759 43.1061 120.385 42.8438 121.113 42.8438C121.892 42.8438 122.544 43.123 123.068 43.6816C123.678 43.5632 124.245 43.3516 124.77 43.0469C124.566 43.6732 124.177 44.1641 123.602 44.5195C124.109 44.4518 124.617 44.3079 125.125 44.0879C124.753 44.6296 124.304 45.0951 123.779 45.4844Z" fill="#686868"/>
<path d="M44.2559 46.0684C44.8314 45.4928 45.5254 45.2051 46.3379 45.2051C47.1504 45.2051 47.8359 45.4928 48.3945 46.0684C48.9701 46.627 49.2578 47.3125 49.2578 48.125C49.2578 48.9375 48.9701 49.6315 48.3945 50.207C47.8359 50.7656 47.1504 51.0449 46.3379 51.0449C45.5254 51.0449 44.8314 50.7656 44.2559 50.207C43.6973 49.6315 43.418 48.9375 43.418 48.125C43.418 47.3125 43.6973 46.627 44.2559 46.0684ZM44.9922 49.4707C45.3646 49.8431 45.8132 50.0293 46.3379 50.0293C46.8626 50.0293 47.3112 49.8431 47.6836 49.4707C48.056 49.0983 48.2422 48.6497 48.2422 48.125C48.2422 47.6003 48.056 47.1517 47.6836 46.7793C47.3112 46.4069 46.8626 46.2207 46.3379 46.2207C45.8132 46.2207 45.3646 46.4069 44.9922 46.7793C44.6198 47.1517 44.4336 47.6003 44.4336 48.125C44.4336 48.6497 44.6198 49.0983 44.9922 49.4707ZM49.8418 44.6211C49.9772 44.7396 50.0449 44.8919 50.0449 45.0781C50.0449 45.2643 49.9772 45.4251 49.8418 45.5605C49.7233 45.696 49.571 45.7637 49.3848 45.7637C49.1986 45.7637 49.0378 45.696 48.9023 45.5605C48.7669 45.4251 48.6992 45.2643 48.6992 45.0781C48.6992 44.8919 48.7669 44.7396 48.9023 44.6211C49.0378 44.4857 49.1986 44.418 49.3848 44.418C49.571 44.418 49.7233 44.4857 49.8418 44.6211ZM52 45.7891C52.0169 46.2461 52.0254 47.0247 52.0254 48.125C52.0254 49.2253 52.0169 50.0039 52 50.4609C51.9492 51.4935 51.6361 52.2975 51.0605 52.873C50.502 53.4316 49.7064 53.7279 48.6738 53.7617C48.2168 53.7956 47.4382 53.8125 46.3379 53.8125C45.2376 53.8125 44.459 53.7956 44.002 53.7617C42.9694 53.7109 42.1738 53.4062 41.6152 52.8477C41.3952 52.6445 41.2174 52.4076 41.082 52.1367C40.9466 51.8659 40.8451 51.6035 40.7773 51.3496C40.7266 51.0957 40.7012 50.7995 40.7012 50.4609C40.6673 50.0039 40.6504 49.2253 40.6504 48.125C40.6504 47.0247 40.6673 46.2376 40.7012 45.7637C40.752 44.748 41.0566 43.9609 41.6152 43.4023C42.1738 42.8268 42.9694 42.5137 44.002 42.4629C44.459 42.446 45.2376 42.4375 46.3379 42.4375C47.4382 42.4375 48.2168 42.446 48.6738 42.4629C49.7064 42.5137 50.502 42.8268 51.0605 43.4023C51.6361 43.9609 51.9492 44.7565 52 45.7891ZM50.7812 51.4766C50.832 51.3411 50.8743 51.1719 50.9082 50.9688C50.9421 50.7487 50.9674 50.4948 50.9844 50.207C51.0013 49.9023 51.0098 49.6569 51.0098 49.4707C51.0098 49.2845 51.0098 49.0221 51.0098 48.6836C51.0098 48.3451 51.0098 48.1589 51.0098 48.125C51.0098 48.0742 51.0098 47.888 51.0098 47.5664C51.0098 47.2279 51.0098 46.9655 51.0098 46.7793C51.0098 46.5931 51.0013 46.3561 50.9844 46.0684C50.9674 45.7637 50.9421 45.5098 50.9082 45.3066C50.8743 45.0866 50.832 44.9089 50.7812 44.7734C50.5781 44.2487 50.2142 43.8848 49.6895 43.6816C49.554 43.6309 49.3763 43.5885 49.1562 43.5547C48.9531 43.5208 48.6992 43.4954 48.3945 43.4785C48.1068 43.4616 47.8698 43.4531 47.6836 43.4531C47.5143 43.4531 47.252 43.4531 46.8965 43.4531C46.5579 43.4531 46.3717 43.4531 46.3379 43.4531C46.304 43.4531 46.1178 43.4531 45.7793 43.4531C45.4408 43.4531 45.1784 43.4531 44.9922 43.4531C44.806 43.4531 44.5605 43.4616 44.2559 43.4785C43.9681 43.4954 43.7142 43.5208 43.4941 43.5547C43.291 43.5885 43.1217 43.6309 42.9863 43.6816C42.4616 43.8848 42.0977 44.2487 41.8945 44.7734C41.8438 44.9089 41.8014 45.0866 41.7676 45.3066C41.7337 45.5098 41.7083 45.7637 41.6914 46.0684C41.6745 46.3561 41.666 46.5931 41.666 46.7793C41.666 46.9486 41.666 47.2109 41.666 47.5664C41.666 47.9049 41.666 48.0911 41.666 48.125C41.666 48.1927 41.666 48.3535 41.666 48.6074C41.666 48.8444 41.666 49.0475 41.666 49.2168C41.666 49.3691 41.666 49.5723 41.666 49.8262C41.6829 50.0801 41.6999 50.3001 41.7168 50.4863C41.7337 50.6556 41.7591 50.8333 41.793 51.0195C41.8268 51.2057 41.8607 51.3581 41.8945 51.4766C42.1146 52.0013 42.4785 52.3652 42.9863 52.5684C43.1217 52.6191 43.291 52.6615 43.4941 52.6953C43.7142 52.7292 43.9681 52.7546 44.2559 52.7715C44.5605 52.7884 44.7975 52.7969 44.9668 52.7969C45.153 52.7969 45.4154 52.7969 45.7539 52.7969C46.1094 52.7969 46.304 52.7969 46.3379 52.7969C46.3887 52.7969 46.5749 52.7969 46.8965 52.7969C47.235 52.7969 47.4974 52.7969 47.6836 52.7969C47.8698 52.7969 48.1068 52.7884 48.3945 52.7715C48.6992 52.7546 48.9531 52.7292 49.1562 52.6953C49.3763 52.6615 49.554 52.6191 49.6895 52.5684C50.2142 52.3483 50.5781 51.9844 50.7812 51.4766Z" fill="white"/>
</svg>
