<svg width="177" height="27" viewBox="0 0 177 27" fill="none" xmlns="http://www.w3.org/2000/svg">
<path d="M11.814 11.628C12.6353 12.0533 13.2807 12.662 13.75 13.454C14.234 14.2313 14.476 15.1113 14.476 16.094C14.476 17.4873 14.014 18.6533 13.09 19.592C12.166 20.5307 11.0073 21 9.614 21H2.156H1.43V5.6H4.466H7.832C9.152 5.6 10.2373 5.996 11.088 6.788C11.9533 7.58 12.386 8.57 12.386 9.758C12.386 10.4033 12.1953 11.0267 11.814 11.628ZM7.832 8.438H4.466V11.034H8.888C9.196 10.726 9.35 10.352 9.35 9.912C9.35 9.472 9.21067 9.12 8.932 8.856C8.668 8.57733 8.30133 8.438 7.832 8.438ZM9.218 18.162C9.93667 18.162 10.4867 17.9567 10.868 17.546C11.2493 17.1207 11.44 16.5853 11.44 15.94C11.44 15.28 11.2493 14.7447 10.868 14.334C10.4867 13.9233 9.944 13.718 9.24 13.718H4.466V18.162H9.218ZM27.0945 16.974C26.8452 18.2353 26.2072 19.2767 25.1805 20.098C24.1539 20.9047 22.9585 21.308 21.5945 21.308C19.9372 21.308 18.5512 20.7507 17.4365 19.636C16.3365 18.5213 15.7865 17.1427 15.7865 15.5C15.7865 13.8573 16.3365 12.4787 17.4365 11.364C18.5512 10.2493 19.9372 9.692 21.5945 9.692C22.9585 9.692 24.1539 10.0953 25.1805 10.902C26.2072 11.7087 26.8452 12.7427 27.0945 14.004H24.1025C23.8972 13.5347 23.5672 13.168 23.1125 12.904C22.6725 12.6253 22.1665 12.486 21.5945 12.486C20.7585 12.486 20.0545 12.772 19.4825 13.344C18.9105 13.9013 18.6245 14.62 18.6245 15.5C18.6245 16.3653 18.9105 17.084 19.4825 17.656C20.0545 18.2133 20.7585 18.492 21.5945 18.492C22.1812 18.492 22.6945 18.36 23.1345 18.096C23.5892 17.8173 23.9119 17.4433 24.1025 16.974H27.0945ZM31.1955 16.666C31.3715 17.414 31.7235 17.986 32.2515 18.382C32.7942 18.7633 33.4322 18.954 34.1655 18.954C34.6642 18.954 35.1188 18.8513 35.5295 18.646C35.9402 18.4407 36.2408 18.1767 36.4315 17.854L39.2255 17.832C38.8882 18.932 38.2648 19.79 37.3555 20.406C36.4608 21.0073 35.3902 21.308 34.1435 21.308C32.3835 21.308 30.9608 20.758 29.8755 19.658C28.7902 18.558 28.2475 17.172 28.2475 15.5C28.2475 13.8427 28.7902 12.464 29.8755 11.364C30.9608 10.2493 32.3615 9.692 34.0775 9.692C35.6762 9.692 36.9888 10.2493 38.0155 11.364C39.0422 12.4787 39.5555 13.8573 39.5555 15.5C39.5555 15.9693 39.5188 16.358 39.4455 16.666H31.1955ZM31.1735 14.444H36.7175C36.5562 13.696 36.2335 13.146 35.7495 12.794C35.2655 12.4273 34.7008 12.244 34.0555 12.244C33.3075 12.244 32.6842 12.4347 32.1855 12.816C31.6868 13.1973 31.3495 13.74 31.1735 14.444ZM53.5513 10H56.3893V21H53.5513V16.82H49.8333V21H46.9953V10H49.8333V14.158H53.5513V10ZM68.3555 19.636C67.2262 20.7507 65.8475 21.308 64.2195 21.308C62.5915 21.308 61.2129 20.7507 60.0835 19.636C58.9689 18.5067 58.4115 17.128 58.4115 15.5C58.4115 13.872 58.9689 12.5007 60.0835 11.386C61.2129 10.2567 62.5915 9.692 64.2195 9.692C65.8475 9.692 67.2262 10.2567 68.3555 11.386C69.4849 12.5007 70.0495 13.872 70.0495 15.5C70.0495 17.128 69.4849 18.5067 68.3555 19.636ZM62.0855 17.678C62.6575 18.25 63.3689 18.536 64.2195 18.536C65.0702 18.536 65.7815 18.25 66.3535 17.678C66.9255 17.106 67.2115 16.38 67.2115 15.5C67.2115 14.62 66.9255 13.894 66.3535 13.322C65.7815 12.75 65.0702 12.464 64.2195 12.464C63.3689 12.464 62.6575 12.75 62.0855 13.322C61.5282 13.894 61.2495 14.62 61.2495 15.5C61.2495 16.38 61.5282 17.106 62.0855 17.678ZM80.098 14.488C80.6994 14.7667 81.1614 15.17 81.484 15.698C81.8214 16.226 81.99 16.8273 81.99 17.502C81.99 18.5287 81.6454 19.372 80.956 20.032C80.2814 20.6773 79.306 21 78.03 21H72.046V16.226V10H74.708H77.106C78.162 10 79.0127 10.286 79.658 10.858C80.3034 11.43 80.626 12.134 80.626 12.97C80.626 13.4833 80.45 13.9893 80.098 14.488ZM74.708 12.288V14.07H77.766C77.8834 13.8647 77.942 13.6447 77.942 13.41C77.942 13.0727 77.8247 12.8013 77.59 12.596C77.37 12.376 77.0694 12.2733 76.688 12.288H74.708ZM77.788 18.646C78.7414 18.646 79.218 18.2353 79.218 17.414C79.218 16.622 78.7414 16.226 77.788 16.226H74.708V18.646H77.788ZM92.9766 19.636C91.8473 20.7507 90.4686 21.308 88.8406 21.308C87.2126 21.308 85.834 20.7507 84.7046 19.636C83.59 18.5067 83.0326 17.128 83.0326 15.5C83.0326 13.872 83.59 12.5007 84.7046 11.386C85.834 10.2567 87.2126 9.692 88.8406 9.692C90.4686 9.692 91.8473 10.2567 92.9766 11.386C94.106 12.5007 94.6706 13.872 94.6706 15.5C94.6706 17.128 94.106 18.5067 92.9766 19.636ZM86.7066 17.678C87.2786 18.25 87.99 18.536 88.8406 18.536C89.6913 18.536 90.4026 18.25 90.9746 17.678C91.5466 17.106 91.8326 16.38 91.8326 15.5C91.8326 14.62 91.5466 13.894 90.9746 13.322C90.4026 12.75 89.6913 12.464 88.8406 12.464C87.99 12.464 87.2786 12.75 86.7066 13.322C86.1493 13.894 85.8706 14.62 85.8706 15.5C85.8706 16.38 86.1493 17.106 86.7066 17.678ZM107.403 16.974C107.154 18.2353 106.516 19.2767 105.489 20.098C104.462 20.9047 103.267 21.308 101.903 21.308C100.246 21.308 98.8598 20.7507 97.7451 19.636C96.6451 18.5213 96.0951 17.1427 96.0951 15.5C96.0951 13.8573 96.6451 12.4787 97.7451 11.364C98.8598 10.2493 100.246 9.692 101.903 9.692C103.267 9.692 104.462 10.0953 105.489 10.902C106.516 11.7087 107.154 12.7427 107.403 14.004H104.411C104.206 13.5347 103.876 13.168 103.421 12.904C102.981 12.6253 102.475 12.486 101.903 12.486C101.067 12.486 100.363 12.772 99.7911 13.344C99.2191 13.9013 98.9331 14.62 98.9331 15.5C98.9331 16.3653 99.2191 17.084 99.7911 17.656C100.363 18.2133 101.067 18.492 101.903 18.492C102.49 18.492 103.003 18.36 103.443 18.096C103.898 17.8173 104.22 17.4433 104.411 16.974H107.403ZM116.68 10V12.662H113.688V21H110.85V12.662H107.814V10H113.688H116.68ZM125.476 10H127.588V21H124.816V14.62L120.306 21H118.194V10H120.966V16.38L125.476 10Z" fill="white"/>
<path d="M176.707 15.7071C177.098 15.3166 177.098 14.6834 176.707 14.2929L170.343 7.92893C169.953 7.53841 169.319 7.53841 168.929 7.92893C168.538 8.31946 168.538 8.95262 168.929 9.34315L174.586 15L168.929 20.6569C168.538 21.0474 168.538 21.6805 168.929 22.0711C169.319 22.4616 169.953 22.4616 170.343 22.0711L176.707 15.7071ZM150 16L176 16L176 14L150 14L150 16Z" fill="white"/>
</svg>
