<svg width="202" height="27" viewBox="0 0 202 27" fill="none" xmlns="http://www.w3.org/2000/svg">
<path d="M11.814 11.628C12.6353 12.0533 13.2807 12.662 13.75 13.454C14.234 14.2313 14.476 15.1113 14.476 16.094C14.476 17.4873 14.014 18.6533 13.09 19.592C12.166 20.5307 11.0073 21 9.614 21H2.156H1.43V5.6H4.466H7.832C9.152 5.6 10.2373 5.996 11.088 6.788C11.9533 7.58 12.386 8.57 12.386 9.758C12.386 10.4033 12.1953 11.0267 11.814 11.628ZM7.832 8.438H4.466V11.034H8.888C9.196 10.726 9.35 10.352 9.35 9.912C9.35 9.472 9.21067 9.12 8.932 8.856C8.668 8.57733 8.30133 8.438 7.832 8.438ZM9.218 18.162C9.93667 18.162 10.4867 17.9567 10.868 17.546C11.2493 17.1207 11.44 16.5853 11.44 15.94C11.44 15.28 11.2493 14.7447 10.868 14.334C10.4867 13.9233 9.944 13.718 9.24 13.718H4.466V18.162H9.218ZM27.0945 16.974C26.8452 18.2353 26.2072 19.2767 25.1805 20.098C24.1539 20.9047 22.9585 21.308 21.5945 21.308C19.9372 21.308 18.5512 20.7507 17.4365 19.636C16.3365 18.5213 15.7865 17.1427 15.7865 15.5C15.7865 13.8573 16.3365 12.4787 17.4365 11.364C18.5512 10.2493 19.9372 9.692 21.5945 9.692C22.9585 9.692 24.1539 10.0953 25.1805 10.902C26.2072 11.7087 26.8452 12.7427 27.0945 14.004H24.1025C23.8972 13.5347 23.5672 13.168 23.1125 12.904C22.6725 12.6253 22.1665 12.486 21.5945 12.486C20.7585 12.486 20.0545 12.772 19.4825 13.344C18.9105 13.9013 18.6245 14.62 18.6245 15.5C18.6245 16.3653 18.9105 17.084 19.4825 17.656C20.0545 18.2133 20.7585 18.492 21.5945 18.492C22.1812 18.492 22.6945 18.36 23.1345 18.096C23.5892 17.8173 23.9119 17.4433 24.1025 16.974H27.0945ZM31.1955 16.666C31.3715 17.414 31.7235 17.986 32.2515 18.382C32.7942 18.7633 33.4322 18.954 34.1655 18.954C34.6642 18.954 35.1188 18.8513 35.5295 18.646C35.9402 18.4407 36.2408 18.1767 36.4315 17.854L39.2255 17.832C38.8882 18.932 38.2648 19.79 37.3555 20.406C36.4608 21.0073 35.3902 21.308 34.1435 21.308C32.3835 21.308 30.9608 20.758 29.8755 19.658C28.7902 18.558 28.2475 17.172 28.2475 15.5C28.2475 13.8427 28.7902 12.464 29.8755 11.364C30.9608 10.2493 32.3615 9.692 34.0775 9.692C35.6762 9.692 36.9888 10.2493 38.0155 11.364C39.0422 12.4787 39.5555 13.8573 39.5555 15.5C39.5555 15.9693 39.5188 16.358 39.4455 16.666H31.1955ZM31.1735 14.444H36.7175C36.5562 13.696 36.2335 13.146 35.7495 12.794C35.2655 12.4273 34.7008 12.244 34.0555 12.244C33.3075 12.244 32.6842 12.4347 32.1855 12.816C31.6868 13.1973 31.3495 13.74 31.1735 14.444ZM54.7833 10V12.662H51.7913V21H48.9533V12.662H45.9173V10H51.7913H54.7833ZM62.7 9.692C64.1813 9.692 65.4427 10.2567 66.484 11.386C67.54 12.5007 68.068 13.872 68.068 15.5C68.068 17.128 67.54 18.5067 66.484 19.636C65.4427 20.7507 64.1813 21.308 62.7 21.308C61.1747 21.308 59.9867 20.78 59.136 19.724V25.4H56.298V10H59.136V11.276C59.9867 10.22 61.1747 9.692 62.7 9.692ZM62.172 18.602C63.052 18.602 63.778 18.316 64.35 17.744C64.9367 17.1573 65.23 16.4093 65.23 15.5C65.23 14.5907 64.9367 13.85 64.35 13.278C63.778 12.6913 63.052 12.398 62.172 12.398C61.336 12.398 60.632 12.6693 60.06 13.212C59.488 13.74 59.18 14.4367 59.136 15.302V15.698C59.18 16.5633 59.488 17.2673 60.06 17.81C60.632 18.338 61.336 18.602 62.172 18.602ZM72.4455 16.666C72.6215 17.414 72.9735 17.986 73.5015 18.382C74.0442 18.7633 74.6822 18.954 75.4155 18.954C75.9142 18.954 76.3688 18.8513 76.7795 18.646C77.1902 18.4407 77.4908 18.1767 77.6815 17.854L80.4755 17.832C80.1382 18.932 79.5148 19.79 78.6055 20.406C77.7108 21.0073 76.6402 21.308 75.3935 21.308C73.6335 21.308 72.2108 20.758 71.1255 19.658C70.0402 18.558 69.4975 17.172 69.4975 15.5C69.4975 13.8427 70.0402 12.464 71.1255 11.364C72.2108 10.2493 73.6115 9.692 75.3275 9.692C76.9262 9.692 78.2388 10.2493 79.2655 11.364C80.2922 12.4787 80.8055 13.8573 80.8055 15.5C80.8055 15.9693 80.7688 16.358 80.6955 16.666H72.4455ZM72.4235 14.444H77.9675C77.8062 13.696 77.4835 13.146 76.9995 12.794C76.5155 12.4273 75.9508 12.244 75.3055 12.244C74.5575 12.244 73.9342 12.4347 73.4355 12.816C72.9368 13.1973 72.5995 13.74 72.4235 14.444ZM84.2633 8.592V6.128H90.6433V8.592H84.2633ZM90.0273 10H92.1393V21H89.3673V14.62L84.8573 21H82.7453V10H85.5173V16.38L90.0273 10ZM103.556 10V21H100.718V12.728H98.2975V16.402C98.2975 19.7607 96.7502 21.3373 93.6555 21.132V18.47C94.8582 18.6313 95.4595 17.8907 95.4595 16.248V10H98.2975H103.556ZM108.518 16.666C108.694 17.414 109.046 17.986 109.574 18.382C110.116 18.7633 110.754 18.954 111.488 18.954C111.986 18.954 112.441 18.8513 112.852 18.646C113.262 18.4407 113.563 18.1767 113.754 17.854L116.548 17.832C116.21 18.932 115.587 19.79 114.678 20.406C113.783 21.0073 112.712 21.308 111.466 21.308C109.706 21.308 108.283 20.758 107.198 19.658C106.112 18.558 105.57 17.172 105.57 15.5C105.57 13.8427 106.112 12.464 107.198 11.364C108.283 10.2493 109.684 9.692 111.4 9.692C112.998 9.692 114.311 10.2493 115.338 11.364C116.364 12.4787 116.878 13.8573 116.878 15.5C116.878 15.9693 116.841 16.358 116.768 16.666H108.518ZM108.496 14.444H114.04C113.878 13.696 113.556 13.146 113.072 12.794C112.588 12.4273 112.023 12.244 111.378 12.244C110.63 12.244 110.006 12.4347 109.508 12.816C109.009 13.1973 108.672 13.74 108.496 14.444ZM125.22 9.692C126.701 9.692 127.962 10.2567 129.004 11.386C130.06 12.5007 130.588 13.872 130.588 15.5C130.588 17.128 130.06 18.5067 129.004 19.636C127.962 20.7507 126.701 21.308 125.22 21.308C123.694 21.308 122.506 20.78 121.656 19.724V25.4H118.818V10H121.656V11.276C122.506 10.22 123.694 9.692 125.22 9.692ZM124.692 18.602C125.572 18.602 126.298 18.316 126.87 17.744C127.456 17.1573 127.75 16.4093 127.75 15.5C127.75 14.5907 127.456 13.85 126.87 13.278C126.298 12.6913 125.572 12.398 124.692 12.398C123.856 12.398 123.152 12.6693 122.58 13.212C122.008 13.74 121.7 14.4367 121.656 15.302V15.698C121.7 16.5633 122.008 17.2673 122.58 17.81C123.152 18.338 123.856 18.602 124.692 18.602ZM137.561 13.52C138.808 13.52 139.812 13.8647 140.575 14.554C141.338 15.2287 141.719 16.1307 141.719 17.26C141.719 18.3893 141.338 19.2987 140.575 19.988C139.812 20.6627 138.808 21 137.561 21H133.271H132.589V10H135.427V13.52H137.561ZM142.929 10H145.767V21H142.929V10ZM137.583 18.492C137.979 18.492 138.302 18.382 138.551 18.162C138.815 17.9273 138.947 17.6267 138.947 17.26C138.947 16.8933 138.815 16.5927 138.551 16.358C138.302 16.1233 137.979 16.006 137.583 16.006H135.427V18.492H137.583Z" fill="white"/>
<path d="M201.707 16.7071C202.098 16.3166 202.098 15.6834 201.707 15.2929L195.343 8.92893C194.953 8.53841 194.319 8.53841 193.929 8.92893C193.538 9.31946 193.538 9.95262 193.929 10.3431L199.586 16L193.929 21.6569C193.538 22.0474 193.538 22.6805 193.929 23.0711C194.319 23.4616 194.953 23.4616 195.343 23.0711L201.707 16.7071ZM175 17L201 17L201 15L175 15L175 17Z" fill="white"/>
</svg>
